<?xml version="1.0" encoding="utf-8"?>
<!-- Generator: Adobe Illustrator 21.1.0, SVG Export Plug-In . SVG Version: 6.00 Build 0)  -->
<svg version="1.1" id="Layer_1" xmlns="http://www.w3.org/2000/svg" xmlns:xlink="http://www.w3.org/1999/xlink" x="0px" y="0px"
	 viewBox="0 0 75.3 62.6" style="enable-background:new 0 0 75.3 62.6;" xml:space="preserve">
<style type="text/css">
	.st0{fill:#656668;}
	.st1{fill:#FFFFFF;}
	.st2{fill:#A7A9AC;}
	.st3{fill:#5BC9F4;}
	.st4{fill:url(#SVGID_1_);}
	.st5{fill:url(#SVGID_2_);}
	.st6{fill:url(#SVGID_3_);}
	.st7{fill:url(#SVGID_4_);}
	.st8{fill:url(#SVGID_5_);}
	.st9{fill:url(#SVGID_6_);}
	.st10{fill:url(#SVGID_7_);}
	.st11{fill:url(#SVGID_8_);}
	.st12{fill:url(#SVGID_9_);}
	.st13{fill:url(#SVGID_10_);}
	.st14{fill:url(#SVGID_11_);}
	.st15{fill:url(#SVGID_12_);}
	.st16{fill:url(#SVGID_13_);}
	.st17{fill:url(#SVGID_14_);}
	.st18{fill:url(#SVGID_15_);}
	.st19{fill:url(#SVGID_16_);}
	.st20{fill:url(#SVGID_17_);}
	.st21{fill:url(#SVGID_18_);}
	.st22{fill:url(#SVGID_19_);}
	.st23{fill:url(#SVGID_20_);}
	.st24{fill:url(#SVGID_21_);}
</style>
<g>
	<g>
		<g>
			<radialGradient id="SVGID_1_" cx="37.9642" cy="36.8664" r="31.3982" gradientUnits="userSpaceOnUse">
				<stop  offset="0" style="stop-color:#F8CA89"/>
				<stop  offset="1" style="stop-color:#A17947"/>
			</radialGradient>
			<path class="st4" d="M32.2,30.1c0-1.1,0.1-1.9,0-2.8c-0.2-3.3,1.3-5.8,3.8-7.8c1-0.8,2.2-1.4,3.4-2.1c0.2-0.1,0.3-0.2,0.6-0.3
				c-0.5-0.5-1-0.9-1.5-1.4c-1.8-1.6-3.1-3.5-3.7-5.8c-0.3-1.1-0.5-2.2-0.5-3.2c-0.1-2.2,0-4.5,0-6.8c0.1,0.1,0.2,0.2,0.2,0.4
				C36.1,4,38.7,6.6,42.5,8c1.5,0.5,2.3,1.8,2.4,3.4c0,0.7,0,1.4,0.1,2.2c0,0.5-0.1,0.7-0.6,0.6c-2.8-0.4-5.1-1.7-7-3.7
				c-0.1-0.1-0.2-0.3-0.4-0.4c0,0-0.1,0.1-0.1,0.1c0.4,0.5,0.8,1.1,1.4,1.5c1.3,1,2.6,2,4,2.9c2.2,1.3,4.3,2.6,6.2,4.4
				c2.6,2.6,4.3,5.5,4.2,9.3c0,1.9,0.1,3.8,0,5.8c-0.1,1.5-0.6,2.9-1.5,4.1c-1.1,1.5-2.5,2.3-4.4,2.4c-4,0.3-7.6-0.8-10.9-3.1
				c-0.3-0.2-0.7-0.3-1-0.3c-2.4,0-4.3-1-5.6-3.1c-0.6-1-1.1-2-1.7-3c-0.2-0.3-0.4-0.7-0.8-0.5c-0.3,0.1-0.5,0.5-0.6,0.8
				c-0.5,1.9-1,3.7-1.9,5.3c-2.4,4.2-6,6-10.7,5.7c-2.6-0.2-5-0.9-7.1-2.4c-2.6-1.8-4-4.3-4-7.6c0-1.7,0-3.4,0.1-5
				c0.1-3.5,1.9-6.1,4.2-8.4c1.6-1.6,3.5-2.8,5.5-3.9c1.8-1,3.5-2.1,4.9-3.6c0.3-0.4,0.6-0.8,0.8-1.2c-0.3,0.3-0.7,0.7-1,1
				c-1.7,1.6-3.8,2.7-6.1,3.1c-0.7,0.1-0.8,0.1-0.8-0.7c0-0.7,0-1.4,0-2c0-1.6,0.8-2.8,2.2-3.3c3.9-1.4,6.5-4.1,8.2-7.9
				c0-0.1,0.1-0.1,0.1-0.2c0,0,0.1,0,0.1,0.1c0,2.7,0,5.3-0.2,8c-0.3,3.2-1.8,5.8-4.2,7.9c-3,2.7-6,5.4-8.9,8.2
				c-1,1-1.9,2.1-2.8,3.3c-1.4,2-1.2,3.9,0.6,5.6c1.3,1.3,3,2,4.7,2.6c2.8,0.9,5.6,1.3,8.4,0.3c2.6-0.9,4.5-2.5,5.7-5.1
				c0.6-1.3,1.1-2.7,1.6-4.1c0.2-0.4,0.3-0.9,0.5-1.3c0.4-1.1,1.2-1.2,1.9-0.3c1.2,1.4,2.5,2.9,3.8,4.3
				C31.6,29.8,31.9,29.9,32.2,30.1z M37.3,30.7c0.1,0,0.3,0,0.5,0c2.8-0.4,5.4-1.4,7.9-2.7c0.4-0.2,0.4-0.5,0.2-0.9
				c-0.7-1-1.4-2.1-2.1-3.1c-0.7-1.1-1.7-1.4-2.9-1c-2.7,0.9-5,2.6-6.7,5c-0.3,0.4-0.3,0.8,0.1,1.3C35,30.3,36,30.7,37.3,30.7z
				 M47.5,24c0.2,0.7,0.5,1.4,0.5,2.1c0.1,1.6,0,3.3,0,4.9c0,0.8-0.3,1.4-0.9,1.8c-0.9,0.6-1.8,1-2.6,1.6c-0.1,0.1-0.2,0.1-0.4,0.3
				c2.7,0.4,4.9-0.5,6.4-2.6c0.8-1.1,1-2.3,0.5-3.5C50.3,26.8,48.9,25.4,47.5,24z"/>
			<radialGradient id="SVGID_2_" cx="37.9642" cy="36.8664" r="31.3982" gradientUnits="userSpaceOnUse">
				<stop  offset="0" style="stop-color:#F8CA89"/>
				<stop  offset="1" style="stop-color:#A17947"/>
			</radialGradient>
			<path class="st5" d="M55.1,30.8c0.1,0.2,0.2,0.5,0.3,0.7c1.2,2.7,3.1,3.8,6,3.1c2.2-0.5,4.4-1.4,6.6-2.1c0.9-0.3,1.7-0.7,2.6-1.1
				c1-0.4,1.1-1.2,0.3-1.8c-1.5-1.1-3-2.3-4.6-3.3c-2.2-1.4-4.4-1.1-6.4,0.4c-0.6,0.4-1.1,1-1.7,1.5c-0.2,0.1-0.3,0.3-0.5,0.6
				c-0.1-0.3-0.1-0.4-0.1-0.5c0-1.5,0-2.9,0-4.4c0-0.7,0.4-1.2,0.9-1.7c3.7-3.1,9.4-2.3,12,1.8c0.9,1.4,1.6,2.8,2.3,4.3
				c0.2,0.4,0.2,0.9,0.2,1.3c0,1.6,0,3.1,0,4.7c0,0.6-0.3,1.1-0.8,1.4c-3.5,2.3-7.3,4-11.4,4.7c-2.7,0.5-4.6-0.8-5.5-3.4
				c-0.7-2-0.3-4.1-0.4-6.2C54.9,30.9,55,30.9,55.1,30.8z"/>
			<radialGradient id="SVGID_3_" cx="37.9642" cy="36.8664" r="31.3982" gradientUnits="userSpaceOnUse">
				<stop  offset="0" style="stop-color:#F8CA89"/>
				<stop  offset="1" style="stop-color:#A17947"/>
			</radialGradient>
			<path class="st6" d="M15.6,55.4c-1.1-1.4-2.2-2.7-3.1-4c-0.6-0.9-0.8-2-0.3-3c0.7-1.5,1.5-2.9,2.3-4.3c0.2,0.1,0.3,0.2,0.4,0.3
				c0.9,1,1.9,2,2.8,3.1c0.7,0.9,1,2,0.5,3.1C17.4,52.2,16.4,53.8,15.6,55.4z"/>
			<radialGradient id="SVGID_4_" cx="37.9642" cy="36.8664" r="31.3982" gradientUnits="userSpaceOnUse">
				<stop  offset="0" style="stop-color:#F8CA89"/>
				<stop  offset="1" style="stop-color:#A17947"/>
			</radialGradient>
			<path class="st7" d="M67.6,39.9c0,0.2,0.1,0.4,0.1,0.6c0,2.8,0,5.7,0,8.5c0,0.6-0.2,0.8-0.8,0.8c-15.6,0-31.1,0-46.7,0
				c-0.2,0-0.3,0-0.5,0c-0.1-0.1-0.2-0.2-0.3-0.3c0-0.1,0.1-0.2,0.2-0.2c0.2,0,0.5,0,0.7,0c14.8,0,29.6,0,44.4,0
				c0.7,0,1.4-0.1,2.1-0.1c0-0.7,0.1-1.4,0.1-2.1c0-2.1,0-4.3,0-6.4C67,40.2,67,39.8,67.6,39.9z"/>
			<radialGradient id="SVGID_5_" cx="37.9642" cy="36.8664" r="31.3982" gradientUnits="userSpaceOnUse">
				<stop  offset="0" style="stop-color:#F8CA89"/>
				<stop  offset="1" style="stop-color:#A17947"/>
			</radialGradient>
			<path class="st8" d="M40.3,5.7c0.3,0,0.5,0,0.7,0c8.6,0,17.1,0,25.7,0c0.9,0,0.9,0,0.9,0.9c0,4.3,0,8.5,0,12.8
				c0,0.2,0,0.5-0.1,0.7c-0.1,0-0.1,0.1-0.2,0.1c-0.1-0.2-0.3-0.3-0.4-0.5c-0.1-0.2,0-0.4,0-0.7c0-3.9,0-7.8,0-11.7
				c0-0.9,0-0.9-0.9-0.9c-8.1,0-16.2,0-24.3,0C41.2,6.3,40.8,6.2,40.3,5.7z"/>
			<radialGradient id="SVGID_6_" cx="37.9642" cy="36.8664" r="31.3982" gradientUnits="userSpaceOnUse">
				<stop  offset="0" style="stop-color:#F8CA89"/>
				<stop  offset="1" style="stop-color:#A17947"/>
			</radialGradient>
			<path class="st9" d="M7.7,16.3c0-0.2,0-0.4,0-0.6c0-3.1,0-6.2,0-9.3c0-0.6,0.2-0.8,0.7-0.8c1.8,0,3.6,0,5.3,0c0.2,0,0.3,0,0.5,0
				c0,0.1,0,0.1,0.1,0.2c-0.4,0.1-0.8,0.4-1.2,0.4c-1.3,0-2.6,0-3.8,0c-1,0-1,0-1,1c0,2.7,0,5.4,0,8.1C8.2,15.8,8.2,16.2,7.7,16.3z"
				/>
			<radialGradient id="SVGID_7_" cx="37.9642" cy="36.8664" r="31.3982" gradientUnits="userSpaceOnUse">
				<stop  offset="0" style="stop-color:#F8CA89"/>
				<stop  offset="1" style="stop-color:#A17947"/>
			</radialGradient>
			<path class="st10" d="M27.3,6.3c-1.7,0-3.4,0-5,0c-0.2,0-0.6-0.2-0.6-0.3c-0.1-0.4,0.3-0.4,0.6-0.4c3.4,0,6.8,0,10.1,0
				c0.2,0,0.4,0.2,0.6,0.3c-0.2,0.1-0.4,0.3-0.6,0.3C30.7,6.4,29,6.3,27.3,6.3L27.3,6.3z"/>
			<radialGradient id="SVGID_8_" cx="37.9642" cy="36.8664" r="31.3982" gradientUnits="userSpaceOnUse">
				<stop  offset="0" style="stop-color:#F8CA89"/>
				<stop  offset="1" style="stop-color:#A17947"/>
			</radialGradient>
			<path class="st11" d="M7.7,42.3c0.6,0,0.6,0.3,0.6,0.7c0,1.8,0,3.5,0,5.3c0,1,0,1,1,1c0.4,0,0.8,0,1.1,0c0.1,0,0.2,0.2,0.4,0.3
				c-0.1,0.1-0.2,0.3-0.3,0.3c-0.8,0-1.6,0-2.4,0c-0.1,0-0.3-0.2-0.3-0.3C7.6,47.1,7.7,44.7,7.7,42.3z"/>
		</g>
	</g>
	<g>
		<radialGradient id="SVGID_9_" cx="38.93" cy="36.8664" r="31.3982" gradientUnits="userSpaceOnUse">
			<stop  offset="0" style="stop-color:#F8CA89"/>
			<stop  offset="1" style="stop-color:#A17947"/>
		</radialGradient>
		<path class="st12" d="M0,59.1h1.5c0.5,0,0.9,0.2,1.2,0.5c0.3,0.3,0.4,0.7,0.4,1.2c0,0.5-0.1,0.9-0.4,1.2c-0.3,0.3-0.7,0.5-1.2,0.5
			H0V59.1z M0.5,59.6V62h1c0.3,0,0.6-0.1,0.8-0.3c0.2-0.2,0.3-0.5,0.3-0.9c0-0.4-0.1-0.7-0.3-0.9c-0.2-0.2-0.5-0.3-0.8-0.3H0.5z"/>
		<radialGradient id="SVGID_10_" cx="38.93" cy="36.8664" r="31.3982" gradientUnits="userSpaceOnUse">
			<stop  offset="0" style="stop-color:#F8CA89"/>
			<stop  offset="1" style="stop-color:#A17947"/>
		</radialGradient>
		<path class="st13" d="M7.6,62.5H7.1l1.5-3.4h0.6l1.5,3.4h-0.5l-0.4-0.8H8L7.6,62.5z M8.8,59.6l-0.7,1.6h1.4L8.8,59.6z"/>
		<radialGradient id="SVGID_11_" cx="38.93" cy="36.8664" r="31.3982" gradientUnits="userSpaceOnUse">
			<stop  offset="0" style="stop-color:#F8CA89"/>
			<stop  offset="1" style="stop-color:#A17947"/>
		</radialGradient>
		<path class="st14" d="M17.4,59.1h0.5v3.4h-0.5V61h-2v1.5h-0.5v-3.4h0.5v1.4h2V59.1z"/>
		<radialGradient id="SVGID_12_" cx="38.93" cy="36.8664" r="31.3982" gradientUnits="userSpaceOnUse">
			<stop  offset="0" style="stop-color:#F8CA89"/>
			<stop  offset="1" style="stop-color:#A17947"/>
		</radialGradient>
		<path class="st15" d="M22.6,62.5h-0.5l1.5-3.4h0.6l1.5,3.4h-0.5l-0.4-0.8H23L22.6,62.5z M23.9,59.6l-0.7,1.6h1.4L23.9,59.6z"/>
		<radialGradient id="SVGID_13_" cx="38.93" cy="36.8664" r="31.3982" gradientUnits="userSpaceOnUse">
			<stop  offset="0" style="stop-color:#F8CA89"/>
			<stop  offset="1" style="stop-color:#A17947"/>
		</radialGradient>
		<path class="st16" d="M29.9,59.1h1.9c0.3,0,0.6,0.1,0.7,0.2c0.2,0.2,0.3,0.4,0.3,0.6c0,0.3-0.1,0.6-0.3,0.7v0
			c0.3,0.2,0.5,0.4,0.5,0.8c0,0.3-0.1,0.5-0.3,0.7c-0.2,0.2-0.5,0.3-0.8,0.3h-1.9V59.1z M30.4,59.6V62h1.4c0.2,0,0.3,0,0.4-0.1
			c0.1-0.1,0.2-0.2,0.2-0.4c0-0.2-0.1-0.3-0.2-0.4C32.2,61,32,61,31.9,61h-1.2l0.2-0.5h1c0.2,0,0.3,0,0.4-0.1
			c0.1-0.1,0.1-0.2,0.1-0.3c0-0.1,0-0.3-0.1-0.3c-0.1-0.1-0.2-0.1-0.4-0.1H30.4z"/>
		<radialGradient id="SVGID_14_" cx="38.93" cy="36.8664" r="31.3982" gradientUnits="userSpaceOnUse">
			<stop  offset="0" style="stop-color:#F8CA89"/>
			<stop  offset="1" style="stop-color:#A17947"/>
		</radialGradient>
		<path class="st17" d="M45.1,59.3l-0.2,0.5c-0.4-0.2-0.8-0.3-1.2-0.3c-0.6,0-0.9,0.2-0.9,0.5c0,0.2,0.2,0.4,0.6,0.5l0.8,0.1
			c0.6,0.1,1,0.4,1,1c0,0.7-0.5,1-1.4,1c-0.6,0-1.1-0.1-1.6-0.4l0.2-0.5c0.5,0.3,0.9,0.4,1.4,0.4c0.6,0,0.9-0.2,0.9-0.5
			c0-0.1,0-0.2-0.1-0.3c-0.1-0.1-0.3-0.1-0.5-0.2L43.3,61c-0.3,0-0.5-0.1-0.7-0.3c-0.2-0.2-0.2-0.4-0.2-0.6c0-0.3,0.1-0.6,0.4-0.7
			c0.2-0.2,0.6-0.3,1-0.3C44.1,59,44.6,59.1,45.1,59.3z"/>
		<radialGradient id="SVGID_15_" cx="38.93" cy="36.8664" r="31.3982" gradientUnits="userSpaceOnUse">
			<stop  offset="0" style="stop-color:#F8CA89"/>
			<stop  offset="1" style="stop-color:#A17947"/>
		</radialGradient>
		<path class="st18" d="M52.2,59.1h0.5v3.4h-0.5V61h-2v1.5h-0.5v-3.4h0.5v1.4h2V59.1z"/>
		<radialGradient id="SVGID_16_" cx="38.93" cy="36.8664" r="31.3982" gradientUnits="userSpaceOnUse">
			<stop  offset="0" style="stop-color:#F8CA89"/>
			<stop  offset="1" style="stop-color:#A17947"/>
		</radialGradient>
		<path class="st19" d="M59,59c0.5,0,1,0.2,1.3,0.5c0.3,0.3,0.5,0.8,0.5,1.3c0,0.5-0.2,0.9-0.5,1.3c-0.3,0.3-0.8,0.5-1.3,0.5
			c-0.5,0-1-0.2-1.3-0.5c-0.3-0.3-0.5-0.8-0.5-1.3c0-0.5,0.2-1,0.5-1.3C58,59.2,58.4,59,59,59z M59,62.1c0.4,0,0.7-0.1,0.9-0.4
			c0.2-0.2,0.4-0.5,0.4-0.9c0-0.4-0.1-0.7-0.4-0.9c-0.2-0.2-0.6-0.4-0.9-0.4c-0.4,0-0.7,0.1-0.9,0.4c-0.2,0.2-0.4,0.5-0.4,0.9
			c0,0.4,0.1,0.7,0.4,0.9C58.3,62,58.6,62.1,59,62.1z"/>
		<radialGradient id="SVGID_17_" cx="38.93" cy="36.8664" r="31.3982" gradientUnits="userSpaceOnUse">
			<stop  offset="0" style="stop-color:#F8CA89"/>
			<stop  offset="1" style="stop-color:#A17947"/>
		</radialGradient>
		<path class="st20" d="M65.3,59.1h1.8c0.3,0,0.6,0.1,0.8,0.3c0.2,0.2,0.3,0.5,0.3,0.8s-0.1,0.6-0.3,0.8c-0.2,0.2-0.4,0.3-0.8,0.3
			H66l0.2-0.5h0.9c0.2,0,0.3-0.1,0.4-0.2c0.1-0.1,0.1-0.2,0.1-0.4c0-0.2,0-0.3-0.1-0.4c-0.1-0.1-0.2-0.1-0.4-0.1h-1.3v2.9h-0.5V59.1
			z"/>
		<radialGradient id="SVGID_18_" cx="38.93" cy="36.8664" r="31.3982" gradientUnits="userSpaceOnUse">
			<stop  offset="0" style="stop-color:#F8CA89"/>
			<stop  offset="1" style="stop-color:#A17947"/>
		</radialGradient>
		<path class="st21" d="M75.1,59.3L75,59.8c-0.4-0.2-0.8-0.3-1.2-0.3c-0.6,0-0.9,0.2-0.9,0.5c0,0.2,0.2,0.4,0.6,0.5l0.8,0.1
			c0.6,0.1,1,0.4,1,1c0,0.7-0.5,1-1.4,1c-0.6,0-1.1-0.1-1.6-0.4l0.2-0.5c0.5,0.3,0.9,0.4,1.4,0.4c0.6,0,0.9-0.2,0.9-0.5
			c0-0.1,0-0.2-0.1-0.3c-0.1-0.1-0.3-0.1-0.5-0.2L73.3,61c-0.3,0-0.5-0.1-0.7-0.3c-0.2-0.2-0.2-0.4-0.2-0.6c0-0.3,0.1-0.6,0.4-0.7
			c0.2-0.2,0.6-0.3,1-0.3C74.2,59,74.7,59.1,75.1,59.3z"/>
	</g>
</g>
</svg>
