<?xml version="1.0" encoding="utf-8"?>
<!-- Generator: Adobe Illustrator 21.1.0, SVG Export Plug-In . SVG Version: 6.00 Build 0)  -->
<svg version="1.1" id="Layer_1" xmlns="http://www.w3.org/2000/svg" xmlns:xlink="http://www.w3.org/1999/xlink" x="0px" y="0px"
	 viewBox="0 0 144.3 120" style="enable-background:new 0 0 144.3 120;" xml:space="preserve">
<style type="text/css">
	.st0{fill:#656668;}
	.st1{fill:#FFFFFF;}
	.st2{fill:#A7A9AC;}
	.st3{fill:#5BC9F4;}
	.st4{fill:url(#SVGID_1_);}
	.st5{fill:url(#SVGID_2_);}
	.st6{fill:url(#SVGID_3_);}
	.st7{fill:url(#SVGID_4_);}
	.st8{fill:url(#SVGID_5_);}
	.st9{fill:url(#SVGID_6_);}
	.st10{fill:url(#SVGID_7_);}
	.st11{fill:url(#SVGID_8_);}
	.st12{fill:url(#SVGID_9_);}
	.st13{fill:url(#SVGID_10_);}
	.st14{fill:url(#SVGID_11_);}
	.st15{fill:url(#SVGID_12_);}
	.st16{fill:url(#SVGID_13_);}
	.st17{fill:url(#SVGID_14_);}
	.st18{fill:url(#SVGID_15_);}
	.st19{fill:url(#SVGID_16_);}
	.st20{fill:url(#SVGID_17_);}
	.st21{fill:url(#SVGID_18_);}
	.st22{fill:url(#SVGID_19_);}
	.st23{fill:url(#SVGID_20_);}
	.st24{fill:url(#SVGID_21_);}
</style>
<g>
	<g>
		<g>
			<g>
				<path d="M61.7,57.8c0-2,0.1-3.7,0-5.4c-0.4-6.4,2.4-11.1,7.2-14.9c2-1.5,4.3-2.7,6.4-4c0.3-0.2,0.7-0.3,1.2-0.6
					c-1-0.9-1.9-1.8-2.9-2.6c-3.4-3-5.9-6.6-7.1-11.1c-0.5-2-0.9-4.1-1-6.2c-0.2-4.3,0-8.6,0-13c0.1,0.2,0.3,0.5,0.4,0.7
					c3.3,6.9,8.3,11.9,15.6,14.5c2.8,1,4.5,3.5,4.5,6.5c0,1.4,0.1,2.8,0.1,4.1c0.1,0.9-0.2,1.3-1.2,1.1c-5.3-0.8-9.7-3.3-13.4-7.1
					c-0.2-0.2-0.5-0.5-0.7-0.7c-0.1,0.1-0.2,0.1-0.2,0.2c0.9,1,1.6,2.2,2.6,2.9c2.5,1.9,5,3.9,7.7,5.5c4.1,2.5,8.3,4.9,11.8,8.4
					c5,4.9,8.2,10.6,8.1,17.8c-0.1,3.7,0.1,7.4-0.1,11c-0.2,2.9-1.2,5.5-2.9,7.9c-2,2.9-4.9,4.5-8.4,4.7c-7.7,0.5-14.7-1.6-21-6
					c-0.5-0.4-1.3-0.6-2-0.6c-4.7,0-8.3-1.8-10.8-5.9c-1.1-1.9-2.2-3.8-3.3-5.7c-0.3-0.6-0.7-1.4-1.5-1c-0.5,0.2-1,0.9-1.2,1.5
					c-0.9,3.6-1.9,7.1-3.7,10.3c-4.5,8-11.5,11.5-20.5,10.9c-4.9-0.3-9.5-1.8-13.6-4.6c-5-3.5-7.8-8.3-7.6-14.5
					c0.1-3.2,0.1-6.5,0.2-9.7C4.6,45.6,8,40.5,12.6,36c3.1-3.1,6.8-5.4,10.6-7.6c3.4-2,6.7-4,9.3-6.9c0.6-0.7,1.2-1.5,1.6-2.4
					c-0.6,0.6-1.3,1.3-1.9,1.9c-3.3,3.1-7.2,5.2-11.7,6c-1.4,0.3-1.6,0.2-1.6-1.2c0-1.3,0-2.6,0-3.9c0-3,1.4-5.4,4.3-6.4
					c7.5-2.7,12.5-8,15.8-15.1C39,0.3,39.1,0.2,39.1,0c0.1,0,0.2,0.1,0.2,0.1c-0.1,5.1,0.1,10.2-0.4,15.3
					c-0.5,6.1-3.5,11.1-8.1,15.2C25.1,35.8,19.4,41,13.8,46.4c-2,1.9-3.7,4.1-5.3,6.3c-2.7,3.8-2.2,7.6,1.2,10.7
					c2.6,2.4,5.7,3.9,9,5c5.3,1.8,10.6,2.4,16.1,0.6c5-1.7,8.7-4.9,10.8-9.7c1.1-2.6,2-5.2,3-7.8c0.3-0.8,0.6-1.7,0.9-2.5
					c0.9-2.1,2.2-2.3,3.7-0.6c2.4,2.8,4.8,5.5,7.2,8.2C60.7,57.1,61.1,57.3,61.7,57.8z M71.5,58.9c0.2,0,0.6,0,0.9-0.1
					c5.3-0.8,10.3-2.6,15.1-5.1c0.8-0.4,0.9-1,0.4-1.7c-1.4-2-2.7-4-4.1-6c-1.4-2-3.2-2.7-5.5-1.9c-5.3,1.8-9.6,4.9-12.8,9.6
					c-0.6,0.8-0.5,1.6,0.1,2.4C67.1,58.1,69.1,58.8,71.5,58.9z M91.1,46c0.4,1.4,1,2.7,1,4c0.1,3.1,0,6.3,0.1,9.4
					c0,1.5-0.5,2.7-1.7,3.4c-1.6,1.1-3.4,2-5,3c-0.2,0.1-0.5,0.3-0.9,0.5c5.3,0.8,9.3-0.9,12.4-4.9c1.6-2,1.9-4.4,0.9-6.8
					C96.4,51.3,93.7,48.7,91.1,46z"/>
				<path d="M105.6,59.2c0.2,0.4,0.4,0.9,0.6,1.3c2.4,5.3,5.9,7.3,11.5,5.9c4.3-1,8.4-2.6,12.6-4.1c1.7-0.6,3.4-1.3,5-2.1
					c1.9-0.8,2.2-2.3,0.6-3.5c-2.9-2.2-5.7-4.4-8.8-6.3c-4.2-2.7-8.4-2-12.2,0.8c-1.2,0.9-2.2,2-3.2,3c-0.3,0.3-0.5,0.6-0.9,1.2
					c-0.1-0.6-0.2-0.8-0.2-1c0-2.8,0-5.6,0-8.4c0-1.4,0.8-2.4,1.8-3.2c7-5.9,18.1-4.4,23.1,3.4c1.7,2.6,3,5.4,4.4,8.2
					c0.4,0.8,0.4,1.7,0.4,2.6c0,3,0,6,0,9c0,1.2-0.5,2.1-1.5,2.7c-6.7,4.4-14,7.6-21.9,8.9c-5.2,0.9-8.8-1.4-10.6-6.5
					c-1.4-3.9-0.5-7.9-0.8-11.8C105.4,59.2,105.5,59.2,105.6,59.2z"/>
				<path d="M29.8,106.3c-2.1-2.7-4.1-5.1-6-7.6c-1.2-1.7-1.5-3.8-0.6-5.7c1.3-2.8,2.9-5.5,4.4-8.3c0.4,0.3,0.6,0.4,0.8,0.6
					c1.8,2,3.6,3.9,5.3,5.9c1.4,1.7,1.9,3.9,1,5.9C33.3,100.1,31.5,103.1,29.8,106.3z"/>
				<path d="M129.6,76.5c0,0.4,0.1,0.8,0.1,1.2c0,5.5,0,10.9,0,16.4c0,1.1-0.3,1.5-1.4,1.5c-29.9,0-59.7,0-89.6,0
					c-0.3,0-0.6,0.1-0.9-0.1c-0.2-0.1-0.4-0.4-0.5-0.6c0-0.1,0.3-0.4,0.5-0.5c0.4-0.1,0.9-0.1,1.4-0.1c28.4,0,56.7,0,85.1,0
					c1.3,0,2.7-0.1,4-0.2c0.1-1.4,0.2-2.7,0.2-4.1c0-4.1,0-8.2,0-12.3C128.5,77.1,128.5,76.4,129.6,76.5z"/>
				<path d="M77.3,11c0.6,0,1-0.1,1.4-0.1c16.4,0,32.9,0,49.3,0c1.6,0,1.7,0,1.7,1.7c0,8.2,0,16.4,0,24.5c0,0.4-0.1,0.9-0.1,1.3
					c-0.1,0.1-0.2,0.1-0.3,0.2c-0.2-0.3-0.6-0.6-0.7-1c-0.1-0.4,0-0.8,0-1.3c0-7.5,0-15,0-22.5c0-1.8,0-1.8-1.8-1.8
					c-15.5,0-31,0-46.5,0C79.1,12.2,78.2,11.9,77.3,11z"/>
				<path d="M14.7,31.3c0-0.4-0.1-0.8-0.1-1.1c0-5.9,0-11.8,0-17.7c0-1.1,0.3-1.5,1.4-1.5c3.4,0.1,6.8,0,10.3,0c0.3,0,0.7,0,1,0.1
					c0,0.1,0.1,0.3,0.1,0.4c-0.8,0.2-1.6,0.7-2.3,0.7c-2.5,0.1-4.9,0-7.4,0c-1.9,0-1.9,0-1.9,2c0,5.2,0,10.4,0,15.6
					C15.8,30.3,15.8,31.1,14.7,31.3z"/>
				<path d="M52.3,12.2c-3.2,0-6.4,0-9.7,0c-0.4,0-1.1-0.3-1.1-0.5c-0.1-0.8,0.6-0.7,1.1-0.7c6.5,0,13,0,19.4,0
					c0.4,0,0.7,0.4,1.1,0.6c-0.4,0.2-0.7,0.6-1.1,0.6C58.8,12.2,55.6,12.2,52.3,12.2L52.3,12.2z"/>
				<path d="M14.7,81.1c1.1,0,1.1,0.7,1.1,1.3c0,3.4,0,6.8,0,10.1c0,1.9,0,1.9,1.9,1.9c0.7,0,1.5,0,2.2,0c0.3,0,0.5,0.3,0.7,0.5
					c-0.2,0.2-0.4,0.5-0.6,0.5c-1.5,0-3.1,0-4.6,0c-0.2,0-0.6-0.4-0.6-0.6C14.7,90.3,14.7,85.7,14.7,81.1z"/>
			</g>
		</g>
		<g>
			<path d="M0,113.3h2.9c0.9,0,1.7,0.3,2.2,0.9c0.6,0.6,0.9,1.4,0.9,2.4c0,1-0.3,1.8-0.8,2.4c-0.6,0.6-1.3,0.9-2.2,0.9H0V113.3z
				 M1,114.3v4.7h1.9c0.7,0,1.2-0.2,1.6-0.6c0.4-0.4,0.6-1,0.6-1.7c0-0.7-0.2-1.3-0.6-1.7c-0.4-0.4-0.9-0.7-1.6-0.7H1z"/>
			<path d="M14.6,119.9h-1l2.9-6.6h1.1l2.9,6.6h-1l-0.7-1.6h-3.4L14.6,119.9z M17,114.3l-1.3,3.1h2.7L17,114.3z"/>
			<path d="M33.3,113.3h1v6.6h-1V117h-3.8v2.9h-1v-6.6h1v2.8h3.8V113.3z"/>
			<path d="M43.4,119.9h-1l2.9-6.6h1.1l2.9,6.6h-1l-0.7-1.6h-3.4L43.4,119.9z M45.8,114.3l-1.3,3.1h2.7L45.8,114.3z"/>
			<path d="M57.4,113.3H61c0.6,0,1.1,0.2,1.4,0.5c0.3,0.3,0.5,0.7,0.5,1.2c0,0.6-0.2,1.1-0.7,1.4v0c0.6,0.3,0.9,0.9,0.9,1.6
				c0,0.6-0.2,1-0.6,1.4c-0.4,0.3-0.9,0.5-1.6,0.5h-3.6V113.3z M58.4,114.3v4.7h2.7c0.4,0,0.6-0.1,0.8-0.3c0.2-0.2,0.3-0.4,0.3-0.7
				c0-0.3-0.1-0.6-0.3-0.7c-0.2-0.2-0.5-0.3-0.8-0.3h-2.3l0.3-0.9h1.9c0.3,0,0.5-0.1,0.7-0.2c0.2-0.2,0.3-0.4,0.3-0.7
				s-0.1-0.5-0.3-0.7c-0.2-0.2-0.4-0.2-0.7-0.2H58.4z"/>
			<path d="M86.4,113.8l-0.3,0.9c-0.8-0.4-1.6-0.6-2.3-0.6c-1.1,0-1.7,0.3-1.7,0.9c0,0.5,0.4,0.8,1.1,0.9l1.6,0.2
				c1.2,0.2,1.9,0.8,1.9,1.9c0,1.3-0.9,2-2.6,2c-1.1,0-2.1-0.2-3-0.7l0.4-1c0.9,0.5,1.8,0.7,2.7,0.7c1.1,0,1.6-0.3,1.6-1
				c0-0.3-0.1-0.5-0.3-0.6c-0.2-0.1-0.5-0.2-0.9-0.3L83,117c-0.6-0.1-1-0.3-1.4-0.6c-0.3-0.3-0.5-0.7-0.5-1.2c0-0.6,0.2-1.1,0.7-1.4
				c0.5-0.3,1.1-0.5,2-0.5C84.7,113.2,85.5,113.4,86.4,113.8z"/>
			<path d="M100,113.3h1v6.6h-1V117h-3.8v2.9h-1v-6.6h1v2.8h3.8V113.3z"/>
			<path d="M113.1,113.2c1,0,1.9,0.3,2.5,1c0.7,0.6,1,1.4,1,2.4c0,1-0.3,1.8-1,2.5c-0.7,0.6-1.5,0.9-2.5,0.9c-1,0-1.9-0.3-2.5-0.9
				c-0.6-0.6-1-1.5-1-2.5c0-1,0.3-1.8,1-2.4C111.2,113.5,112.1,113.2,113.1,113.2z M113.1,119.1c0.7,0,1.4-0.2,1.8-0.7
				c0.5-0.5,0.7-1.1,0.7-1.8c0-0.7-0.2-1.3-0.7-1.8c-0.5-0.5-1.1-0.7-1.8-0.7c-0.7,0-1.3,0.2-1.8,0.7c-0.5,0.5-0.7,1.1-0.7,1.8
				c0,0.7,0.2,1.3,0.7,1.8C111.7,118.9,112.3,119.1,113.1,119.1z"/>
			<path d="M125.2,113.3h3.5c0.6,0,1.1,0.2,1.4,0.6c0.4,0.4,0.5,0.9,0.5,1.5c0,0.6-0.2,1.1-0.5,1.5c-0.4,0.4-0.8,0.6-1.4,0.6h-2.1
				l0.4-0.9h1.7c0.3,0,0.6-0.1,0.8-0.3c0.2-0.2,0.3-0.5,0.3-0.8c0-0.4-0.1-0.6-0.3-0.8c-0.2-0.2-0.4-0.3-0.7-0.3h-2.5v5.6h-1V113.3z
				"/>
			<path d="M144.1,113.8l-0.3,0.9c-0.8-0.4-1.6-0.6-2.3-0.6c-1.1,0-1.7,0.3-1.7,0.9c0,0.5,0.4,0.8,1.1,0.9l1.6,0.2
				c1.2,0.2,1.9,0.8,1.9,1.9c0,1.3-0.9,2-2.6,2c-1.1,0-2.1-0.2-3-0.7l0.4-1c0.9,0.5,1.8,0.7,2.7,0.7c1.1,0,1.6-0.3,1.6-1
				c0-0.3-0.1-0.5-0.3-0.6c-0.2-0.1-0.5-0.2-0.9-0.3l-1.6-0.2c-0.6-0.1-1-0.3-1.4-0.6c-0.3-0.3-0.5-0.7-0.5-1.2
				c0-0.6,0.2-1.1,0.7-1.4c0.5-0.3,1.1-0.5,2-0.5C142.4,113.2,143.2,113.4,144.1,113.8z"/>
		</g>
	</g>
</g>
</svg>
